<svg width="540" height="96" viewBox="0 0 540 96" fill="none" xmlns="http://www.w3.org/2000/svg">
<path d="M31.0138 49.4666C15.293 49.4666 0 44.0057 0 28.6042C0 12.2652 18.0685 7.73085 31.0138 7.73085C40.4924 7.73085 48.1937 8.92984 56.0048 12.3633L53.328 21.8898C47.3051 19.2847 39.8671 17.7261 32.2206 17.7261C20.0652 17.7261 14.0972 21.9443 14.0972 28.6587C14.0972 35.373 20.493 39.4822 32.1657 39.5367C41.1177 39.5367 47.2503 37.771 53.328 35.373L56.0487 44.845C48.1937 47.9188 41.019 49.4775 31.0138 49.4775V49.4666Z" fill="white"/>
<path d="M60.3007 48.3178V8.89047H74.0218V38.0762H109.778V48.3178H60.3007Z" fill="white"/>
<path d="M128.719 8.89047H114.803V48.3178H128.719V8.89047Z" fill="white"/>
<path d="M167.498 18.2H147.359V28.344H167.815C171.05 28.344 173.453 26.3824 173.453 23.0661C173.453 19.7498 170.897 18.2 167.454 18.2H167.509H167.498ZM171.202 37.6102H147.359V48.3178H133.744V8.89047H171.148C180.491 8.89047 187.473 13.4423 187.473 23.0661C187.473 32.6899 180.425 37.6102 171.192 37.6102H171.202Z" fill="white"/>
<path d="M215.712 49.4666C206.487 49.4666 198.408 48.6393 190.952 46.2988L193.921 36.948C199.86 38.9183 206.956 40.2246 215.712 40.2246C225.777 40.2246 229.369 38.9728 229.369 36.8936C229.369 34.8144 226.247 34.2375 216.29 33.4646C199.14 32.2128 191.007 29.4587 191.007 20.4671C191.007 11.4755 202.164 7.73085 218.528 7.73085C226.924 7.73085 236.039 8.51462 241.934 10.8006L239.118 20.2603C233.692 18.0723 226.4 17.0381 218.528 17.0381C208.987 17.0381 205.133 17.8219 205.133 19.6398C205.133 21.4577 207.742 22.187 216.913 22.862C234.424 24.1138 243.135 25.9317 243.135 35.3914C243.135 45.8416 231.301 49.4775 215.668 49.4775H215.723L215.712 49.4666Z" fill="white"/>
<path d="M338.246 49.4666C329.021 49.4666 320.942 48.6393 313.486 46.2988L316.455 36.948C322.394 38.9183 329.49 40.2246 338.246 40.2246C348.311 40.2246 351.903 38.9728 351.903 36.8936C351.903 34.8144 348.781 34.2375 338.824 33.4646C321.674 32.2128 313.541 29.4587 313.541 20.4671C313.541 11.4755 324.698 7.73085 341.062 7.73085C349.458 7.73085 358.573 8.51462 364.468 10.8006L361.652 20.2603C356.226 18.0723 348.934 17.0381 341.062 17.0381C331.521 17.0381 327.667 17.8219 327.667 19.6398C327.667 21.4577 330.276 22.187 339.447 22.862C356.958 24.1138 365.669 25.9317 365.669 35.3914C365.669 45.8416 353.835 49.4775 338.202 49.4775H338.257L338.246 49.4666Z" fill="white"/>
<path d="M398.344 19.9041L390.578 32.7592H406.056L398.344 19.9041ZM415.393 48.3178L411.614 42.0423H385.129L381.295 48.3178H364.51L391.577 8.50394H405.583L432.541 48.3178H415.393Z" fill="white"/>
<path d="M436.02 48.3178V8.89047H449.634V38.0762H485.111V48.3178H436.02Z" fill="white"/>
<path d="M490.522 48.3178V8.89047H540V18.2542H504.129V22.9144H540V31.8663H504.129V38.9541H540V48.3178H490.522Z" fill="white"/>
<path fill-rule="evenodd" clip-rule="evenodd" d="M263.816 0H282.596L274.012 31.5941H282.497L285.219 22.0671H305.755L277.645 95.476L281.158 49.1633H255.561H250.48L263.816 0Z" fill="#8F6BC7"/>
</svg>
